<?xml version="1.0" standalone="no"?><!DOCTYPE svg PUBLIC "-//W3C//DTD SVG 1.1//EN" "http://www.w3.org/Graphics/SVG/1.1/DTD/svg11.dtd"><svg t="1757060028733" class="icon" viewBox="0 0 1024 1024" version="1.1" xmlns="http://www.w3.org/2000/svg" p-id="2437" xmlns:xlink="http://www.w3.org/1999/xlink" width="200" height="200"><path d="M512 1024C229.2224 1024 0 794.7776 0 512S229.2224 0 512 0s512 229.2224 512 512-229.2224 512-512 512z m281.6-649.472c0-19.3024-15.872-34.9184-35.4816-34.9184h-157.1328a62.464 62.464 0 0 1-43.2128-17.3056l-30.8224-29.6192A40.1408 40.1408 0 0 0 499.2 281.6h-207.744C271.872 281.6 256 297.216 256 316.4928v391.0144c0 19.2768 15.872 34.8928 35.4816 34.8928h466.6368C777.728 742.4 793.6 726.784 793.6 707.5072V374.5024z m-218.5472 87.2192l88.5248 69.9648c2.6624 2.048 2.688 6.4 0.128 8.6528l-87.0656 72.96c-3.072 2.6112-7.3472 0.1536-7.424-4.1472l-0.3328-35.8144c-0.0512-2.8928-2.1248-5.2224-4.6592-5.2224h-149.9648c-2.5856 0-4.6592-2.4064-4.6592-5.2992V512.512c0-2.9696 2.0992-5.2992 4.6592-5.2992h149.1968c2.5856 0 4.7104-2.3808 4.6592-5.3504l-0.3584-35.7376c-0.0512-4.2752 4.224-6.8096 7.296-4.352z" fill="#4DD088" p-id="2438"></path></svg>