<?xml version="1.0" standalone="no"?><!DOCTYPE svg PUBLIC "-//W3C//DTD SVG 1.1//EN" "http://www.w3.org/Graphics/SVG/1.1/DTD/svg11.dtd"><svg t="1769266543733" class="icon" viewBox="0 0 1024 1024" version="1.1" xmlns="http://www.w3.org/2000/svg" p-id="14350" xmlns:xlink="http://www.w3.org/1999/xlink" width="200" height="200"><path d="M741.771174 262.155692C677.624659 205.711937 594.470532 173.617161 505.988076 173.617161 310.13809 173.617161 151.557398 330.19953 151.557398 523.120645 151.557398 716.04176 310.13809 872.624128 505.988076 872.624128 674.711072 872.624128 818.507776 773.518413 852.461312 612.869034L938.631571 612.869035C896.146573 813.884582 716.156506 960 505.988076 960 261.988129 960 64 764.506778 64 523.120645 64 281.73451 261.988129 86.24129 505.988076 86.24129 617.425288 86.24129 722.300896 127.268887 802.643763 199.250968L923.792806 74.057552C940.630016 56.658264 954.627827 62.480999 955.048422 86.527053L959.993229 369.227621C960.418029 393.513624 940.793344 413.549158 916.697331 413.968883L633.409444 418.90344C609.072986 419.327354 603.204644 405.348045 619.830844 388.166806L741.771174 262.155692 741.771174 262.155692Z" fill="#858483" p-id="14351"></path></svg>