<?xml version="1.0" standalone="no"?><!DOCTYPE svg PUBLIC "-//W3C//DTD SVG 1.1//EN" "http://www.w3.org/Graphics/SVG/1.1/DTD/svg11.dtd"><svg t="1769266513647" class="icon" viewBox="0 0 1024 1024" version="1.1" xmlns="http://www.w3.org/2000/svg" p-id="13336" xmlns:xlink="http://www.w3.org/1999/xlink" width="200" height="200"><path d="M600.746667 128a99.626667 99.626667 0 0 1 87.04 52.906667L725.333333 256h123.733334a96.64 96.64 0 0 1 96.64 96v256h-64v-256A32.213333 32.213333 0 0 0 849.066667 320H704a30.72 30.72 0 0 1-29.013333-17.493333l-46.933334-93.013334A30.72 30.72 0 0 0 599.04 192h-209.706667a32.213333 32.213333 0 0 0-29.013333 17.493333l-46.72 93.013334a30.72 30.72 0 0 1-29.013333 17.493333H139.306667A32.213333 32.213333 0 0 0 106.666667 352v448A32.213333 32.213333 0 0 0 139.306667 832h573.866666v64H139.306667A96.64 96.64 0 0 1 42.666667 800v-448A96.64 96.64 0 0 1 139.52 256h125.653333l37.12-75.093333A97.706667 97.706667 0 0 1 389.333333 128z m-106.666667 256a176 176 0 1 1-177.493333 176A176 176 0 0 1 494.293333 384z m0 64a112 112 0 1 0 112.853333 112A112 112 0 0 0 494.293333 448z" fill="#7F7F7F" p-id="13337"></path><path d="M856.746667 646.4a28.586667 28.586667 0 0 1 28.8 28.8v67.2h66.986666A28.586667 28.586667 0 0 1 981.333333 771.2a28.586667 28.586667 0 0 1-28.8 28.8h-66.986666v67.2a28.8 28.8 0 1 1-57.386667 0V800h-67.2a28.586667 28.586667 0 0 1-28.586667-28.8 28.586667 28.586667 0 0 1 28.586667-28.8h67.2v-67.2a28.586667 28.586667 0 0 1 28.586667-28.8z" fill="#7F7F7F" p-id="13338"></path></svg>