<?xml version="1.0" standalone="no"?><!DOCTYPE svg PUBLIC "-//W3C//DTD SVG 1.1//EN" "http://www.w3.org/Graphics/SVG/1.1/DTD/svg11.dtd"><svg t="1770048265919" class="icon" viewBox="0 0 1121 1024" version="1.1" xmlns="http://www.w3.org/2000/svg" p-id="21618" xmlns:xlink="http://www.w3.org/1999/xlink" width="218.9453125" height="200"><path d="M292.571429 341.333333a48.761905 48.761905 0 1 0 0 97.52381 48.761905 48.761905 0 0 0 0-97.52381z m273.066666 0a48.761905 48.761905 0 1 0 0 97.52381 48.761905 48.761905 0 0 0 0-97.52381z m273.066667 0a48.761905 48.761905 0 1 0 0 97.52381 48.761905 48.761905 0 0 0 0-97.52381z" fill="#199BD2" p-id="21619"></path><path d="M981.333333 0H140.190476C62.756571 0 0 63.536762 0 141.897143v531.992381c0 78.360381 64.170667 150.576762 143.36 150.576762h213.674667c37.254095 38.66819 191.341714 194.364952 191.341714 194.364952 6.826667 6.875429 17.944381 6.875429 24.771048 0 0 0 112.835048-124.830476 186.368-194.364952h218.648381c79.189333 0 143.36-72.216381 143.36-150.576762V141.897143C1121.52381 63.536762 1058.767238 0 981.333333 0zM975.238095 780.190476h-219.428571c-26.087619 0-6.826667-0.487619-24.380953 0l-170.666666 170.666667L390.095238 780.190476H146.285714c-39.69219 0-97.52381-58.270476-97.523809-97.523809V146.285714c0-39.253333 58.709333-97.52381 97.523809-97.523809h828.952381c38.765714 0 97.52381 58.270476 97.52381 97.523809v536.380953c0 39.204571-57.831619 97.52381-97.52381 97.523809z" fill="#199BD2" p-id="21620"></path></svg>