<?xml version="1.0" standalone="no"?><!DOCTYPE svg PUBLIC "-//W3C//DTD SVG 1.1//EN" "http://www.w3.org/Graphics/SVG/1.1/DTD/svg11.dtd"><svg t="1769266721398" class="icon" viewBox="0 0 1024 1024" version="1.1" xmlns="http://www.w3.org/2000/svg" p-id="16231" xmlns:xlink="http://www.w3.org/1999/xlink" width="200" height="200"><path d="M594.975 173.876h-40.932V125.97c0-22.468-18.277-40.744-40.744-40.744-22.466 0-40.743 18.277-40.743 40.744v44.836h-40.932V125.97c0-45.037 36.639-81.676 81.675-81.676 45.037 0 81.676 36.639 81.676 81.676v47.906z m-80.654 812.166c-42.38 0-82.471-11.966-112.888-33.694-32.501-23.217-50.4-54.75-50.4-88.79h40.932c0 20.457 11.812 40.162 33.259 55.483 23.534 16.811 55.176 26.07 89.096 26.07 33.917 0 65.557-9.259 89.094-26.07 21.451-15.323 33.265-35.027 33.265-55.482h40.932c0 34.04-17.901 65.571-50.405 88.79-30.419 21.729-70.508 33.694-112.885 33.694z m142.761-586.644h40.932v40.806h-40.932v-40.806z m-1.87-48.893c-0.24-4.158-0.017-27.586-32.892-65.167-31.042-35.48-64.275-33.912-64.588-33.88-11.289 0.893-21.127-7.517-22.023-18.783-0.894-11.268 7.515-21.127 18.782-22.022 2.175-0.171 53.698-3.631 98.635 47.733 19.817 22.654 33.537 44.697 40.782 65.517 2.006 5.764 8.204 25.462 3.756 36.928 0 0-2.282 13.618-23.004 12.723s-19.792-20.721-19.449-23.05zM468.726 884.053c-17.241 0-37.027-0.006-58.201-0.013-25.019-0.008-52.186-0.016-79.833-0.016-60.707 0-105.95-4.033-138.316-12.33-33.778-8.659-54.303-22.424-62.744-42.079-17.26-40.192 23.599-83.225 59.65-121.192 10.94-11.523 21.277-22.407 28.894-32.012 9.274-11.692 10.323-16.301 10.437-17.038V414.689c0-67.909 24.236-133.724 68.241-185.32 43.51-51.014 103.688-85.237 169.448-96.368l6.831 40.358C355.166 193.327 269.544 294.82 269.544 414.688v244.839c0 23.813-22.321 47.32-50.58 77.082-15.608 16.438-31.749 33.438-42.182 49.042-8.436 12.618-11.824 22.496-9.54 27.813 1.08 2.513 6.814 11.28 35.298 18.582 28.597 7.33 71.714 11.049 128.152 11.048 27.652 0 54.824 0.008 79.846 0.016 44.135 0.015 82.25 0.028 103.744-0.016 70.121-0.141 128.271-0.083 174.995-0.035 18.705 0.018 35.242 0.035 49.482 0.035 40.852 0 72.464-3.597 93.959-10.689 10.395-3.43 23.601-9.45 27.482-18.659 4.156-9.858-1.517-26.868-15.97-47.899-15.306-22.27-36.801-44.308-54.074-62.016-22.601-23.173-31.058-31.843-31.058-44.304v-244.84c0-113.008-96.223-225.607-205.917-240.962l5.674-40.537c31.638 4.429 62.727 15.453 92.404 32.765 28.431 16.587 54.157 38.092 76.464 63.919 46.627 53.986 72.307 119.62 72.307 184.815v239.88c3.808 4.667 12.344 13.417 19.428 20.682 39.911 40.92 100.225 102.759 78.458 154.395-7.91 18.766-25.531 32.772-52.374 41.63-26.001 8.579-60.932 12.75-106.786 12.751-14.252 0-30.804-0.017-49.524-0.035-46.696-0.048-104.812-0.106-174.873 0.035-11.209 0.021-26.919 0.029-45.633 0.029z" p-id="16232"></path></svg>